<?xml version="1.0" encoding="UTF-8"?>
<svg id="Layer_2" data-name="Layer 2" xmlns="http://www.w3.org/2000/svg" xmlns:xlink="http://www.w3.org/1999/xlink" viewBox="0 0 758.02 961.66">
  <defs>
    <style>
      .cls-1 {
        fill: url(#linear-gradient-2);
      }

      .cls-2 {
        fill: #8925f2;
        font-family: GillSans-Bold, 'Gill Sans';
        font-size: 155.04px;
        font-weight: 700;
      }

      .cls-3 {
        fill: url(#linear-gradient);
      }
    </style>
    <linearGradient id="linear-gradient" x1="374.38" y1="25.74" x2="374.38" y2="802.5" gradientUnits="userSpaceOnUse">
      <stop offset="0" stop-color="#d9b6ff"/>
      <stop offset=".49" stop-color="#b969ff"/>
      <stop offset="1" stop-color="#8925f2"/>
    </linearGradient>
    <linearGradient id="linear-gradient-2" x1="228.03" y1="25.74" x2="228.03" y2="802.5" xlink:href="#linear-gradient"/>
  </defs>
  <g id="Layer_1-2" data-name="Layer 1">
    <text class="cls-2" transform="translate(0 897.92)"><tspan x="0" y="0">ROUTINI</tspan></text>
    <g>
      <path class="cls-3" d="M748,606.69c-.39-127.75-.13-255.44.03-382.82.03-29.2,1.38-59.28.02-88.47-2.12-45.41-42.79-85.21-87.75-88.7l-51.27.02c-.03-8.97-.11-18.05-1.32-26.92-5.56-17.35-24.97-26.51-40.28-14.03-3.51,2.87-7.8,9.72-8.4,14.21v26.24c-.64-.27-1.48.5-1.75.5H189.77c-1.66,0-.71-3.3-.72-4.22-.13-12.5,2.47-23.54-6.54-33.49-10.79-11.91-27.69-12.16-37.97.5-1.78,2.2-4.51,7.2-4.51,9.98v26.74c-.92.23-1.76.45-2.73.52-19.08,1.5-40.59-2.19-59.46,1.03-22.86,3.9-42.89,16.34-56.93,33.69h-.01C8.82,96.41,1.17,114.98,0,134.9v523.26c1.48,19.67,9.07,37.92,20.89,52.76v4.82h4.08c13.97,15.41,32.8,26.43,54.03,30.37,11.3,2.1,22.43.53,33.74,1.76h536.05c41.65,1.71,80.12-23.58,94.24-62.72,8.48-23.49,5.03-53.67,4.96-78.45ZM612.28,346.92c-2.77-.76-9.54-6.36-11.21-5.57-1.28.6-6.03,5.4-7.45,6.84-22.69,22.97-45.52,58.31-63.9,87.5-32.87,52.22-64.38,109.05-93.78,164.97-.5.93-.97,1.84-1.45,2.75h-67.65c-6.17-7.87-12.36-15.75-18.54-23.62l-3.3-5c-.61-1.04-1.87-2.81-3.72-5.3l-12.12-17.12-19.25-31.74-20.82-33.92c-12.38-17.2-23.77-31.02-34.15-41.45-.39-.39-.77-.77-1.15-1.15-10.69-10.56-20.35-18.17-28.96-22.83-8.61-4.66-23.09-6.98-43.43-6.98h-16.2v189.1h-62.21V168.9h108.87c43.95,0,78.85,10.88,104.67,32.67,25.81,21.77,38.72,51.21,38.72,88.33,0,25.31-6.33,47.18-18.98,65.63-12.65,18.47-30.79,32.25-54.43,41.37,13.9,9.12,27.48,21.57,40.76,37.32,13.26,15.77,31.92,43.24,55.99,82.43,2.62,4.27,5.14,8.37,7.58,12.27,3.98,5.14,7.93,10.31,11.85,15.54l1.53.63c14.3-26.19,28.37-52.61,43.07-78.41,23.1-40.6,47.79-82.19,73.75-119.61,19.65-28.32,56.5-78.33,86.38-81.3,16.5-1.64,32.61,9.92,40,29.64,10.49,28.01-7.74,57.72-30.45,51.52Z"/>
      <path class="cls-1" d="M279.96,252.11c-7.26-11.09-17.46-18.92-30.63-23.49-13.17-4.55-34.99-6.84-65.47-6.84h-18.66v137.16h23.63c31.52,0,53.14-2.69,64.85-8.08,11.72-5.39,20.84-13.53,27.38-24.42,6.53-10.88,9.8-23.28,9.8-37.17s-3.64-26.08-10.9-37.17Z"/>
    </g>
  </g>
</svg> 